<svg data-name="Layer 1" xmlns="http://www.w3.org/2000/svg" viewBox="0 0 96.71 122.88">
    <path d="M37.84 63.29c5.06 10.21 20.65 10.54 26.09.07a35.09 35.09 0 0 1-4.2-5.21 13.32 13.32 0 0 1-9 2.93A13.42 13.42 0 0 1 40.6 57a29.52 29.52 0 0 1-2.76 6.3ZM1.52 116.66l32.36-30.23c7.93 7.92 15.77 15.77 23.78 23.68l21.2-21.47L69 78.81l20.68-.19 7-.06v27.92L87.25 97c-6.47 6.56-12.91 13.14-19.41 19.64-8.2 8.2-12.1 8.33-20.29.14l-13.83-13.64-13.62 13.52Zm64.06-54.85c8 5.65 19.57 3.74 27.09 8.21l-23.27.21a9.51 9.51 0 0 0-6.64 2.32 8.23 8.23 0 0 0-.39 12.14l4 4L59 96.11h-2.9q-7.42-7.39-14.9-14.88l-.86-.85a9.56 9.56 0 0 0-12.92 0L10.57 96.11H0C.79 91.76.86 86.64 1.6 82c3.19-20 22.15-11.7 34.18-20.11a33.75 33.75 0 0 0 3-6.83 54 54 0 0 1-4.3-6.13L30.08 42a12.66 12.66 0 0 1-2.47-6.33 5 5 0 0 1 .39-2.29 4.18 4.18 0 0 1 1.5-1.74 4.72 4.72 0 0 1 1.05-.54 109.09 109.09 0 0 1-.21-12.44 17.31 17.31 0 0 1 .54-2.82 16.69 16.69 0 0 1 7.35-9.38 23.39 23.39 0 0 1 6.17-2.74c1.38-.39-.2-3.51 1.23-3.65 6.9-.71 17.1 4.3 21.93 9.51a16.84 16.84 0 0 1 4.26 10.67l-.27 11.3a3.14 3.14 0 0 1 2.3 2.38c.35 1.37 0 3.3-1.2 5.94a.61.61 0 0 1-.07.14l-5 8.17a42.31 42.31 0 0 1-6.09 8.39 36.69 36.69 0 0 0 3.9 5.13.57.57 0 0 1 .11.11Zm-34.3-27.72a3.22 3.22 0 0 0-.16 3c.6 1.84 2.53 4.64 3.6 6.34l2.58 4.09a36.61 36.61 0 0 0 5.85 7.69c5.07 4 10.61 3.76 15.73-.27a38.86 38.86 0 0 0 6-8.21l4.9-8.08c.91-2.08 1.25-3.48 1-4.29s-2-.8-2.86-.75a1.59 1.59 0 0 1-.38 0 7.74 7.74 0 0 1-1.35-.07l1.68-7.44c-12.46 2-20.34-7.16-33.51-1.72l.95 8.76c-1.41.07-3-.4-4.09.92Z" style="fill-rule:evenodd"/>
</svg>
