<svg xmlns="http://www.w3.org/2000/svg" viewBox="0 0 122.88 98.24" style="enable-background:new 0 0 122.88 98.24" xml:space="preserve">
    <path d="M57.1 70.14c5.17-8.96 16.63-12.03 25.59-6.86 2.44 1.41 4.44 3.28 5.96 5.44L56.2 87.09c-2.34-5.28-2.21-11.57.9-16.95zM33.79 9.22C38.87.42 50.23-2.62 59.03 2.46c8.8 5.08 11.84 16.44 6.76 25.24-10.5 18.19-20.98 36.2-31.48 54.39-2.53 4.38-6.62 7.33-11.17 8.55-4.55 1.22-9.57.71-13.95-1.82C4.81 86.29 1.86 82.2.64 77.65-.58 73.1-.07 68.08 2.46 63.7c10.5-18.21 20.81-36.26 31.33-54.48zm54.13 12.12c5.17-8.96 16.63-12.03 25.59-6.86 2.44 1.41 4.44 3.28 5.96 5.44L87.01 38.3c-2.33-5.29-2.2-11.57.91-16.96zm33.08 1.2c2.61 5.4 2.59 11.95-.64 17.54-5.17 8.96-16.63 12.03-25.59 6.86a18.684 18.684 0 0 1-6.32-5.97L121 22.54zM47.44 55.3 19.08 38.93 4.2 64.71c-2.25 3.9-2.7 8.36-1.61 12.42 1.09 4.06 3.71 7.7 7.6 9.95 3.9 2.25 8.36 2.7 12.42 1.61 4.05-1.09 7.7-3.71 9.95-7.61L47.44 55.3zm42.74 16.04c2.61 5.4 2.59 11.95-.64 17.54-5.17 8.96-16.63 12.03-25.59 6.86a18.684 18.684 0 0 1-6.32-5.97l32.55-18.43z" style="fill-rule:evenodd;clip-rule:evenodd"/>
</svg>
